/* USER CODE BEGIN Header */
/**
  ******************************************************************************
  * @file    stm32f3xx_it.c
  * @brief   Interrupt Service Routines.
  ******************************************************************************
  * @attention
  *
  * <h2><center>&copy; Copyright (c) 2021 STMicroelectronics.
  * All rights reserved.</center></h2>
  *
  * This software component is licensed by ST under BSD 3-Clause license,
  * the "License"; You may not use this file except in compliance with the
  * License. You may obtain a copy of the License at:
  *                        opensource.org/licenses/BSD-3-Clause
  *
  ******************************************************************************
  */
/* USER CODE END Header */

/* Includes ------------------------------------------------------------------*/
#include "main.h"
#include "stm32f3xx_it.h"
/* Private includes ----------------------------------------------------------*/
/* USER CODE BEGIN Includes */
/* USER CODE END Includes */

/* Private typedef -----------------------------------------------------------*/
/* USER CODE BEGIN TD */

/* USER CODE END TD */

/* Private define ------------------------------------------------------------*/
/* USER CODE BEGIN PD */

/* USER CODE END PD */

/* Private macro -------------------------------------------------------------*/
/* USER CODE BEGIN PM */

/* USER CODE END PM */

/* Private variables ---------------------------------------------------------*/
/* USER CODE BEGIN PV */

/* USER CODE END PV */

/* Private function prototypes -----------------------------------------------*/
/* USER CODE BEGIN PFP */

/* USER CODE END PFP */

/* Private user code ---------------------------------------------------------*/
/* USER CODE BEGIN 0 */



extern TIM_HandleTypeDef htim1;
extern TIM_HandleTypeDef htim2;
extern TIM_HandleTypeDef htim3;
void PWM_Change_Tone(uint16_t pwm_freq, uint16_t volume) {
  if (pwm_freq == 0 || pwm_freq > 20000) {
    __HAL_TIM_SET_COMPARE(&htim2, TIM_CHANNEL_1, 0);
  }
  else {
    const uint32_t internal_clock_freq = HAL_RCC_GetSysClockFreq();
    const uint16_t prescaler = 1;
    const uint32_t timer_clock = internal_clock_freq;
    const uint32_t period_cycles = (uint32_t)timer_clock / (uint32_t)pwm_freq;
    const uint32_t pulse_width = (uint16_t)((volume * period_cycles) / 1000) / 2;
    htim2.Instance->PSC = prescaler - 1;
    htim2.Instance->ARR = period_cycles - 1;
    htim2.Instance->EGR = TIM_EGR_UG;
    __HAL_TIM_SET_COMPARE(&htim2, TIM_CHANNEL_1, pulse_width);
  }
}

extern int sw;
extern uint16_t freq;
int play_count = 0;
int note_to_play = 0;
int cur_play_count = 0;

int melody[] = {

  // The Godfather theme
  // Score available at https://musescore.com/user/35463/scores/55160

  REST, 4, REST, 8, REST, 8, REST, 8, NOTE_E4, 8, NOTE_A4, 8, NOTE_C5, 8, //1
  NOTE_B4, 8, NOTE_A4, 8, NOTE_C5, 8, NOTE_A4, 8, NOTE_B4, 8, NOTE_A4, 8, NOTE_F4, 8, NOTE_G4, 8,
  NOTE_E4, 2, NOTE_E4, 8, NOTE_A4, 8, NOTE_C5, 8,
  NOTE_B4, 8, NOTE_A4, 8, NOTE_C5, 8, NOTE_A4, 8, NOTE_C5, 8, NOTE_A4, 8, NOTE_E4, 8, NOTE_DS4, 8,

  NOTE_D4, 2, NOTE_D4, 8, NOTE_F4, 8, NOTE_GS4, 8, //5
  NOTE_B4, 2, NOTE_D4, 8, NOTE_F4, 8, NOTE_GS4, 8,
  NOTE_A4, 2, NOTE_C4, 8, NOTE_C4, 8, NOTE_G4, 8,
  NOTE_F4, 8, NOTE_E4, 8, NOTE_G4, 8, NOTE_F4, 8, NOTE_F4, 8, NOTE_E4, 8, NOTE_E4, 8, NOTE_GS4, 8,

  NOTE_A4, 2, REST,8, NOTE_A4, 8, NOTE_A4, 8, NOTE_GS4, 8, //9
  NOTE_G4, 2, NOTE_B4, 8, NOTE_A4, 8, NOTE_F4, 8,
  NOTE_E4, 2, NOTE_E4, 8, NOTE_G4, 8, NOTE_E4, 8,
  NOTE_D4, 2, NOTE_D4, 8, NOTE_D4, 8, NOTE_F4, 8, NOTE_DS4, 8,

  NOTE_E4, 2, REST, 8, NOTE_E4, 8, NOTE_A4, 8, NOTE_C5, 8, //13

  //repeats from 2
  NOTE_B4, 8, NOTE_A4, 8, NOTE_C5, 8, NOTE_A4, 8, NOTE_B4, 8, NOTE_A4, 8, NOTE_F4, 8, NOTE_G4, 8, //2
  NOTE_E4, 2, NOTE_E4, 8, NOTE_A4, 8, NOTE_C5, 8,
  NOTE_B4, 8, NOTE_A4, 8, NOTE_C5, 8, NOTE_A4, 8, NOTE_C5, 8, NOTE_A4, 8, NOTE_E4, 8, NOTE_DS4, 8,

  NOTE_D4, 2, NOTE_D4, 8, NOTE_F4, 8, NOTE_GS4, 8, //5
  NOTE_B4, 2, NOTE_D4, 8, NOTE_F4, 8, NOTE_GS4, 8,
  NOTE_A4, 2, NOTE_C4, 8, NOTE_C4, 8, NOTE_G4, 8,
  NOTE_F4, 8, NOTE_E4, 8, NOTE_G4, 8, NOTE_F4, 8, NOTE_F4, 8, NOTE_E4, 8, NOTE_E4, 8, NOTE_GS4, 8,

  NOTE_A4, 2, REST,8, NOTE_A4, 8, NOTE_A4, 8, NOTE_GS4, 8, //9
  NOTE_G4, 2, NOTE_B4, 8, NOTE_A4, 8, NOTE_F4, 8,
  NOTE_E4, 2, NOTE_E4, 8, NOTE_G4, 8, NOTE_E4, 8,
  NOTE_D4, 2, NOTE_D4, 8, NOTE_D4, 8, NOTE_F4, 8, NOTE_DS4, 8,

  NOTE_E4, 2 //13
};
/* USER CODE END 0 */

/* External variables --------------------------------------------------------*/
extern TIM_HandleTypeDef htim4;
extern UART_HandleTypeDef huart3;
/* USER CODE BEGIN EV */

/* USER CODE END EV */

/******************************************************************************/
/*           Cortex-M4 Processor Interruption and Exception Handlers          */
/******************************************************************************/
/**
  * @brief This function handles Non maskable interrupt.
  */
void NMI_Handler(void)
{
  /* USER CODE BEGIN NonMaskableInt_IRQn 0 */

  /* USER CODE END NonMaskableInt_IRQn 0 */
  /* USER CODE BEGIN NonMaskableInt_IRQn 1 */
  while (1)
  {
  }
  /* USER CODE END NonMaskableInt_IRQn 1 */
}

/**
  * @brief This function handles Hard fault interrupt.
  */
void HardFault_Handler(void)
{
  /* USER CODE BEGIN HardFault_IRQn 0 */

  /* USER CODE END HardFault_IRQn 0 */
  while (1)
  {
    /* USER CODE BEGIN W1_HardFault_IRQn 0 */
    /* USER CODE END W1_HardFault_IRQn 0 */
  }
}

/**
  * @brief This function handles Memory management fault.
  */
void MemManage_Handler(void)
{
  /* USER CODE BEGIN MemoryManagement_IRQn 0 */

  /* USER CODE END MemoryManagement_IRQn 0 */
  while (1)
  {
    /* USER CODE BEGIN W1_MemoryManagement_IRQn 0 */
    /* USER CODE END W1_MemoryManagement_IRQn 0 */
  }
}

/**
  * @brief This function handles Pre-fetch fault, memory access fault.
  */
void BusFault_Handler(void)
{
  /* USER CODE BEGIN BusFault_IRQn 0 */

  /* USER CODE END BusFault_IRQn 0 */
  while (1)
  {
    /* USER CODE BEGIN W1_BusFault_IRQn 0 */
    /* USER CODE END W1_BusFault_IRQn 0 */
  }
}

/**
  * @brief This function handles Undefined instruction or illegal state.
  */
void UsageFault_Handler(void)
{
  /* USER CODE BEGIN UsageFault_IRQn 0 */

  /* USER CODE END UsageFault_IRQn 0 */
  while (1)
  {
    /* USER CODE BEGIN W1_UsageFault_IRQn 0 */
    /* USER CODE END W1_UsageFault_IRQn 0 */
  }
}

/**
  * @brief This function handles System service call via SWI instruction.
  */
void SVC_Handler(void)
{
  /* USER CODE BEGIN SVCall_IRQn 0 */

  /* USER CODE END SVCall_IRQn 0 */
  /* USER CODE BEGIN SVCall_IRQn 1 */

  /* USER CODE END SVCall_IRQn 1 */
}

/**
  * @brief This function handles Debug monitor.
  */
void DebugMon_Handler(void)
{
  /* USER CODE BEGIN DebugMonitor_IRQn 0 */

  /* USER CODE END DebugMonitor_IRQn 0 */
  /* USER CODE BEGIN DebugMonitor_IRQn 1 */

  /* USER CODE END DebugMonitor_IRQn 1 */
}

/**
  * @brief This function handles Pendable request for system service.
  */
void PendSV_Handler(void)
{
  /* USER CODE BEGIN PendSV_IRQn 0 */

  /* USER CODE END PendSV_IRQn 0 */
  /* USER CODE BEGIN PendSV_IRQn 1 */

  /* USER CODE END PendSV_IRQn 1 */
}

/**
  * @brief This function handles System tick timer.
  */
void SysTick_Handler(void)
{
  /* USER CODE BEGIN SysTick_IRQn 0 */

  /* USER CODE END SysTick_IRQn 0 */
  HAL_IncTick();
  /* USER CODE BEGIN SysTick_IRQn 1 */

  /* USER CODE END SysTick_IRQn 1 */
}

/******************************************************************************/
/* STM32F3xx Peripheral Interrupt Handlers                                    */
/* Add here the Interrupt Handlers for the used peripherals.                  */
/* For the available peripheral interrupt handler names,                      */
/* please refer to the startup file (startup_stm32f3xx.s).                    */
/******************************************************************************/

/**
  * @brief This function handles TIM4 global interrupt.
  */
void TIM4_IRQHandler(void)
{
  /* USER CODE BEGIN TIM4_IRQn 0 */

  /* USER CODE END TIM4_IRQn 0 */
  HAL_TIM_IRQHandler(&htim4);
  /* USER CODE BEGIN TIM4_IRQn 1 */
  if(sw == 3) {
    PWM_Change_Tone(0, 0);
      note_to_play = 0;
      sw = 0;
  }
  if(sw == 2) {
    if(cur_play_count < (melody[note_to_play + 1])) {
      if(cur_play_count == 0)
      PWM_Change_Tone(melody[note_to_play], 300);
      cur_play_count++;
    } else {
      cur_play_count = 0;
      note_to_play += 2;
      PWM_Change_Tone(0, 0);
      if(note_to_play == 258) {
        note_to_play = 0;
        sw = 0;
      }
    }
  }
  if(play_count < 48 && sw == 1) {
    if(play_count == 0)
      PWM_Change_Tone(freq, 300);
    if(++play_count == 48) {
      PWM_Change_Tone(0, 0);
      sw = 0;
      play_count = 0;
    }
  }
  /* USER CODE END TIM4_IRQn 1 */
}

/**
  * @brief This function handles USART3 global interrupt / USART3 wake-up interrupt through EXTI line 28.
  */
void USART3_IRQHandler(void)
{
  /* USER CODE BEGIN USART3_IRQn 0 */

  /* USER CODE END USART3_IRQn 0 */
  HAL_UART_IRQHandler(&huart3);
  /* USER CODE BEGIN USART3_IRQn 1 */

  /* USER CODE END USART3_IRQn 1 */
}

/* USER CODE BEGIN 1 */

/* USER CODE END 1 */
/************************ (C) COPYRIGHT STMicroelectronics *****END OF FILE****/
